<?xml version="1.0" encoding="UTF-8" standalone="no"?>
<!-- Created with Inkscape (http://www.inkscape.org/) -->

<svg
   xmlns:dc="http://purl.org/dc/elements/1.1/"
   xmlns:cc="http://creativecommons.org/ns#"
   xmlns:rdf="http://www.w3.org/1999/02/22-rdf-syntax-ns#"
   xmlns:svg="http://www.w3.org/2000/svg"
   xmlns="http://www.w3.org/2000/svg"
   xmlns:sodipodi="http://sodipodi.sourceforge.net/DTD/sodipodi-0.dtd"
   xmlns:inkscape="http://www.inkscape.org/namespaces/inkscape"
   width="512"
   height="512"
   viewBox="0 0 511.99999 511.99999"
   id="svg2"
   version="1.1"
   inkscape:version="0.91 r"
   sodipodi:docname="logo-light.svg">
  <defs
     id="defs4" />
  <sodipodi:namedview
     id="base"
     pagecolor="#ffffff"
     bordercolor="#666666"
     borderopacity="1.0"
     inkscape:pageopacity="0.0"
     inkscape:pageshadow="2"
     inkscape:zoom="0.70710678"
     inkscape:cx="224.08475"
     inkscape:cy="223.62775"
     inkscape:document-units="px"
     inkscape:current-layer="layer1"
     showgrid="true"
     units="px"
     inkscape:window-width="1920"
     inkscape:window-height="1056"
     inkscape:window-x="0"
     inkscape:window-y="24"
     inkscape:window-maximized="1"
     inkscape:object-nodes="true"
     inkscape:snap-nodes="true">
    <inkscape:grid
       type="xygrid"
       id="grid5922"
       empspacing="8" />
  </sodipodi:namedview>
  <metadata
     id="metadata7">
    <rdf:RDF>
      <cc:Work
         rdf:about="">
        <dc:format>image/svg+xml</dc:format>
        <dc:type
           rdf:resource="http://purl.org/dc/dcmitype/StillImage" />
        <dc:title />
      </cc:Work>
    </rdf:RDF>
  </metadata>
  <g
     inkscape:label="Layer 1"
     inkscape:groupmode="layer"
     id="layer1"
     transform="translate(0,-540.36219)">
    <path
       inkscape:connector-curvature="0"
       style="fill:#ffffff;fill-rule:evenodd;stroke:none;stroke-width:1;stroke-linecap:butt;stroke-linejoin:miter;stroke-miterlimit:4;stroke-dasharray:none;stroke-opacity:1"
       d="m 256,580.36316 c -64.06522,32.03261 -120.11298,96.13101 -160.12109,168.22071 7.86001,14.0194 19.99866,32.1529 27.58984,38.5762 11.92977,10.0944 26.38967,19.0092 43.53711,26.6445 17.9553,7.4755 37.99438,14.9959 60.11523,22.5371 l 32.16211,10.7188 0.0781,0.027 c 15.48032,5.338 27.9795,11.0145 37.94922,17.7988 12.11664,7.6829 19.58203,22.0099 19.58203,36.4121 0,15.5515 -8.77775,29.9114 -21.72656,39.623 -15.23575,11.4269 -35.81139,14.6954 -62.47852,14.6954 -44.39073,-0.2853 -86.63338,-29.9708 -104.73047,-63.3106 40.97729,23.4058 81.98469,31.3125 104.73047,31.3125 23.40182,0 38.07875,-4.3964 43.2793,-8.2969 7.48748,-5.6156 8.92578,-9.1386 8.92578,-14.0234 0,-5.9515 -0.63297,-6.8536 -4.74219,-9.4219 l -0.29687,-0.1855 -0.28711,-0.1973 c -6.32098,-4.3457 -16.67431,-9.337 -30.63868,-14.1523 l -32.08203,-10.6953 -0.0508,-0.016 c -22.76025,-7.7592 -43.51774,-15.5418 -62.29883,-23.3672 l -0.17382,-0.072 -0.17188,-0.076 c -19.57336,-8.6992 -36.74824,-19.1707 -51.35151,-31.5273 -9.29141,-7.8619 -17.44702,-18.4232 -24.30274,-29.0684 C 49.10415,844.91097 32,910.33767 32,964.36317 c 87.92625,43.96313 206.05109,57.72463 312.88672,41.28903 12.89664,-5.95713 28.18926,-21.40583 39.40039,-40.61323 11.89016,-20.3707 19.31641,-44.6139 19.31641,-62.2071 0,-37.4726 -11.1681,-64.2676 -33.79883,-84.6797 l -0.12305,-0.1093 -0.12109,-0.1153 c -23.13734,-21.7491 -57.75752,-40.5846 -104.25977,-55.4257 l -0.0117,0 -40.44726,-12.9746 c -14.1791,-4.3628 -25.36901,-8.9893 -34.29102,-15.1661 l -0.32812,-0.2285 -0.32032,-0.2441 c -9.70621,-7.4663 -16.20507,-19.556 -16.20507,-31.8418 0,-15.5198 10.16723,-29.5533 23.94335,-37.5117 15.04,-9.2063 34.34177,-12.209 52.25196,-12.209 36.03606,0.3827 65.79976,15.0672 87.99414,45.1914 -43.0575,-17.5965 -60.48254,-18.4942 -82.57813,-18.4942 -10.81247,0.5064 -49.82297,6.1795 -49.61132,23.0235 0.21165,16.844 54.15445,23.0754 86.48046,34.4199 32.32602,11.3445 71.21345,31.8093 99.15235,58.0176 29.41609,26.5862 44.27344,64.1266 44.27344,108.3496 0,25.8339 -9.34765,53.7822 -23.68164,78.3398 -2.34991,4.026 -4.84423,7.9573 -7.45704,11.7793 26.78341,-7.4101 52.22395,-16.9322 75.53514,-28.5878 0,-128 -96,-320 -224,-384.00001 z"
       id="path8202" />
  </g>
</svg>
