<?xml version="1.0" encoding="UTF-8" standalone="no"?>
<!-- Created with Inkscape (http://www.inkscape.org/) -->

<svg
   xmlns:dc="http://purl.org/dc/elements/1.1/"
   xmlns:cc="http://creativecommons.org/ns#"
   xmlns:rdf="http://www.w3.org/1999/02/22-rdf-syntax-ns#"
   xmlns:svg="http://www.w3.org/2000/svg"
   xmlns="http://www.w3.org/2000/svg"
   xmlns:sodipodi="http://sodipodi.sourceforge.net/DTD/sodipodi-0.dtd"
   xmlns:inkscape="http://www.inkscape.org/namespaces/inkscape"
   width="512"
   height="512"
   viewBox="0 0 511.99999 511.99999"
   id="svg2"
   version="1.1"
   inkscape:version="0.91 r"
   sodipodi:docname="logo-light.svg">
  <defs
     id="defs4" />
  <sodipodi:namedview
     id="base"
     pagecolor="#ffffff"
     bordercolor="#666666"
     borderopacity="1.0"
     inkscape:pageopacity="0.0"
     inkscape:pageshadow="2"
     inkscape:zoom="0.70710678"
     inkscape:cx="7.2708033"
     inkscape:cy="223.62775"
     inkscape:document-units="px"
     inkscape:current-layer="layer1"
     showgrid="true"
     units="px"
     inkscape:window-width="1600"
     inkscape:window-height="868"
     inkscape:window-x="0"
     inkscape:window-y="32"
     inkscape:window-maximized="0"
     inkscape:object-nodes="true"
     inkscape:snap-nodes="true">
    <inkscape:grid
       type="xygrid"
       id="grid5922"
       empspacing="8" />
  </sodipodi:namedview>
  <metadata
     id="metadata7">
    <rdf:RDF>
      <cc:Work
         rdf:about="">
        <dc:format>image/svg+xml</dc:format>
        <dc:type
           rdf:resource="http://purl.org/dc/dcmitype/StillImage" />
        <dc:title />
      </cc:Work>
    </rdf:RDF>
  </metadata>
  <g
     inkscape:label="Layer 1"
     inkscape:groupmode="layer"
     id="layer1"
     transform="translate(0,-540.36219)">
    <path
       d="m 48,588.36219 c 29.649186,54.35684 63.88676,105.65227 102.22266,153.43164 21.9034,28.02403 28.47931,68.19062 12.77343,91.34961 -5.47848,8.07824 -11.06708,16.0094 -16.92187,23.91211 -5.86742,7.734 -10.28385,16.71812 -13.25,26.94922 -2.96615,10.23108 -4.01906,21.08122 -3.16016,32.55273 1.02309,13.66458 4.56562,25.86879 10.62891,36.61133 6.06329,10.74255 14.12238,19.80902 24.17578,27.19922 10.20947,7.20888 22.13635,12.42295 35.7793,15.64258 13.82428,3.37569 29.0027,4.44487 45.53515,3.20703 19.73773,-1.47783 37.81337,-5.88451 54.22852,-13.2207 16.59647,-7.18017 30.74474,-16.46734 42.44531,-27.86133 6.22665,-6.07891 11.63926,-12.61795 16.25391,-19.60547 -20.14413,-14.32624 -39.73433,-29.35263 -58.75586,-45.0293 -0.71825,-9.39965 -2.99214,-18.26197 -6.82422,-26.58789 -3.69337,-8.54497 -8.45704,-16.67098 -14.29297,-24.37695 -5.84857,-7.87467 -12.36032,-15.53057 -19.5332,-22.9668 -7.1729,-7.43623 -14.51315,-14.86051 -22.02344,-22.27148 -7.52292,-7.57966 -14.87893,-15.17046 -22.06445,-22.77539 -7.18552,-7.60493 -13.70716,-15.42929 -19.56836,-23.47266 -5.87382,-8.21207 -10.75524,-16.75331 -14.64258,-25.62305 -3.71864,-8.88236 -5.95699,-18.38395 -6.71484,-28.50586 -1.0231,-13.66458 0.90439,-26.44866 5.78125,-38.34961 5.03292,-12.08227 12.37802,-22.72622 22.03711,-31.93164 9.82775,-9.21804 21.64978,-16.71936 35.46679,-22.5039 13.80439,-5.95324 29.05861,-9.55424 45.75977,-10.80469 14.00197,-1.04836 26.78546,-0.22375 38.35351,2.47266 11.55541,2.5277 21.53847,6.69873 29.94727,12.51562 8.56488,5.63556 15.3741,12.76042 20.42969,21.37305 5.0556,8.61261 7.9954,18.40179 8.8164,29.36719 0.54314,7.25404 0.0287,13.99403 -1.54101,20.21875 -1.41361,6.04338 -3.64194,11.3827 -6.6875,16.02148 -3.0582,4.47008 -6.94669,8.07075 -11.66211,10.79883 -4.71542,2.72806 -9.94003,4.30687 -15.67578,4.73633 -6.57924,0.4926 -12.66908,-0.41009 -18.26953,-2.70508 -5.44437,-2.47632 -10.3026,-6.1839 -14.57422,-11.12305 6.05688,-5.20353 10.73415,-11.83022 14.0332,-19.88086 3.28641,-8.21934 4.59521,-16.79921 3.92578,-25.74023 -0.83364,-11.1341 -4.77868,-19.66019 -11.83789,-25.57813 -7.07185,-6.08664 -16.34491,-8.70069 -27.81641,-7.84179 -6.91664,0.51786 -13.22538,2.34703 -18.92773,5.48828 -5.54628,2.95993 -10.25143,6.96068 -14.11523,12 -3.70775,4.858 -6.50296,10.58059 -8.38477,17.16797 -1.71311,6.57474 -2.28518,13.65662 -1.7168,21.24804 0.8589,11.4715 4.45049,22.06053 10.77539,31.76563 6.32491,9.7051 14.07078,19.13414 23.23828,28.28711 9.16752,9.15297 19.02405,18.42318 29.56641,27.8125 10.52973,9.22062 20.44056,19.25184 29.73438,30.09179 9.28119,10.67126 17.20463,22.46269 23.76953,35.37305 6.55225,12.74167 10.42897,27.12402 11.6289,43.15039 1.27571,17.03855 -1.08685,33.07862 -7.08593,48.11719 -2.8546,7.06079 -6.37637,13.74454 -10.54883,20.0625 33.62499,23.91367 68.76483,45.90971 105.28906,65.83204 48,-144.00003 48,-272.00001 0,-416.00001 -144,-48 -272,-48 -416,0 z m 195.76953,271.8125 c 13.29991,0.12319 20.3909,3.29747 26.56836,7.97656 9.7114,8.63456 19.58219,17.09739 29.61914,25.36914 0.003,0.0358 0.007,0.0714 0.01,0.10742 0.6947,9.27842 -0.26337,18.00307 -2.875,26.17188 -2.61162,8.16881 -6.48739,15.32985 -11.625,21.48242 -5.13761,6.15256 -11.45929,11.20517 -18.9668,15.16016 -7.52015,3.78629 -15.8356,6.02105 -24.94531,6.70312 -15.01417,1.12414 -27.32014,-2.36586 -36.91797,-10.46875 -9.44175,-8.28421 -14.73042,-20.0183 -15.86719,-35.20117 -0.60629,-8.09752 0.19876,-15.45181 2.41797,-22.06445 2.37527,-6.79397 5.9246,-12.65801 10.64453,-17.5918 4.71993,-4.93378 10.61121,-8.93811 17.67578,-12.01172 7.06457,-3.0736 15.15201,-4.95074 24.26172,-5.63281 z"
       id="path4148-3-3"
       inkscape:connector-curvature="0"
       style="fill:#ffffff" />
  </g>
</svg>
